<svg xmlns="http://www.w3.org/2000/svg" viewBox="0 0 1200 630" width="1200" height="630">
  <defs>
    <linearGradient id="og-bg" x1="0" y1="0" x2="1200" y2="630" gradientUnits="userSpaceOnUse">
      <stop offset="0" stop-color="#FAFAFB"/>
      <stop offset="1" stop-color="#EEF2FF"/>
    </linearGradient>
    <linearGradient id="og-mark" x1="450" y1="200" x2="610" y2="360" gradientUnits="userSpaceOnUse">
      <stop offset="0" stop-color="#4F46E5"/>
      <stop offset="1" stop-color="#9333EA"/>
    </linearGradient>
  </defs>
  <rect width="1200" height="630" fill="url(#og-bg)"/>
  <rect x="450" y="200" width="160" height="160" rx="36" ry="36" fill="url(#og-mark)"/>
  <g transform="translate(450 200) scale(2.5)">
    <path fill="#FFFFFF" d="M 32 14 A 18 18 0 1 0 50 32 L 50 30 L 34 30 L 34 36 L 43 36 A 11 11 0 1 1 32 21 A 11 11 0 0 1 41 25.5 L 46 22 A 18 18 0 0 0 32 14 Z"/>
  </g>
  <text x="600" y="430"
        font-family="Inter, -apple-system, BlinkMacSystemFont, 'Segoe UI', Roboto, sans-serif"
        font-size="72" letter-spacing="-2"
        text-anchor="middle">
    <tspan fill="#1F2937" font-weight="500">Meet</tspan><tspan fill="#4F46E5" font-weight="700">GEO</tspan>
  </text>
  <text x="600" y="490"
        font-family="Inter, -apple-system, BlinkMacSystemFont, 'Segoe UI', Roboto, sans-serif"
        font-size="26" font-weight="400" fill="#6B7280" letter-spacing="0"
        text-anchor="middle">Generative engine optimization, on autopilot.</text>
</svg>